<?xml version="1.0" encoding="UTF-8"?>
<svg version="1.1" xmlns="http://www.w3.org/2000/svg" width="1438" height="1438">
<path d="M0 0 C0.99 0 1.98 0 3 0 C7.2006076 8.53792137 10.91669676 17.07657884 13.95751953 26.09936523 C15.0148774 29.23478275 16.10277467 32.22654045 17.47265625 35.24609375 C19.69547898 40.31389967 20.86702425 45.70560701 22.1875 51.0625 C22.59645508 52.65674805 22.59645508 52.65674805 23.01367188 54.28320312 C23.27083984 55.31509766 23.52800781 56.34699219 23.79296875 57.41015625 C24.0252417 58.33965088 24.25751465 59.26914551 24.49682617 60.22680664 C25.03719451 63.20499391 25.0859626 65.97962494 25 69 C25.66 69 26.32 69 27 69 C31.35707006 96.48516522 34.28741034 125.67712188 27 153 C26.34 153 25.68 153 25 153 C24.88785156 154.155 24.77570313 155.31 24.66015625 156.5 C24.1052235 160.89313716 22.94253859 164.84703568 21.4375 169 C21.17428955 169.73275146 20.9110791 170.46550293 20.63989258 171.22045898 C14.28944052 188.36281742 4.54771319 204.2268394 -4.88623047 219.81494141 C-7.70750796 224.48182033 -10.41159178 229.20038877 -13 234 C-13.66 234 -14.32 234 -15 234 C-15.20625 234.78375 -15.4125 235.5675 -15.625 236.375 C-17.74441627 241.96255197 -20.97964887 246.83655546 -24.1875 251.859375 C-31.55305642 263.4192066 -37.9248683 275.26241457 -43 288 C-43.66 288 -44.32 288 -45 288 C-45.226875 289.134375 -45.45375 290.26875 -45.6875 291.4375 C-46.75278728 296.25045262 -48.10625878 300.96180643 -49.5 305.6875 C-49.71358154 306.41187256 -49.92716309 307.13624512 -50.1472168 307.88256836 C-51.08690476 311.0381397 -52.05688799 314.1672825 -53.1171875 317.28515625 C-56.16422905 326.65548314 -55.09452019 337.26442083 -55 347 C-54.34 347 -53.68 347 -53 347 C-52.75765625 347.78503906 -52.5153125 348.57007813 -52.265625 349.37890625 C-50.04557668 356.45291932 -50.04557668 356.45291932 -46.75 363.0625 C-45 366 -45 366 -45 369 C-53.08299944 368.63259093 -60.36454007 367.74049239 -68 365 C-68 364.34 -68 363.68 -68 363 C-69.299375 362.62875 -69.299375 362.62875 -70.625 362.25 C-76.72515124 359.99068473 -81.11919418 356.17419157 -85.6875 351.625 C-87.08548828 350.25214844 -87.08548828 350.25214844 -88.51171875 348.8515625 C-90.98801456 346.01373528 -92.38606456 343.37670642 -94 340 C-94.48823242 339.52127441 -94.97646484 339.04254883 -95.47949219 338.54931641 C-98.06721249 335.91256736 -99.10170593 332.38744147 -100.4375 329 C-100.89709106 327.85313721 -100.89709106 327.85313721 -101.3659668 326.68310547 C-102.25258884 324.4586948 -103.1270204 322.22979175 -104 320 C-104.42023438 318.95070313 -104.84046875 317.90140625 -105.2734375 316.8203125 C-111.55909781 300.51540417 -111.95937471 282.46833289 -110.1875 265.25 C-110.09911865 264.38600586 -110.0107373 263.52201172 -109.91967773 262.63183594 C-108.89095464 253.19384873 -107.27373199 244.14837112 -103.8449707 235.25292969 C-102.20501497 230.8803462 -100.77714804 226.43369449 -99.3125 222 C-98.83200195 220.55173828 -98.83200195 220.55173828 -98.34179688 219.07421875 C-97.55981451 216.71660028 -96.77924655 214.35852383 -96 212 C-95.34 212 -94.68 212 -94 212 C-93.89429688 211.32066406 -93.78859375 210.64132812 -93.6796875 209.94140625 C-92.86694691 206.42420129 -91.5723093 203.22927378 -90.125 199.9375 C-89.82327881 199.24994629 -89.52155762 198.56239258 -89.21069336 197.85400391 C-83.26436957 184.65072604 -75.74377562 172.15207203 -68.4609375 159.65234375 C-66.90531328 157.01713307 -66.90531328 157.01713307 -66 154 C-65.34 154 -64.68 154 -64 154 C-63.72027344 153.28328125 -63.44054687 152.5665625 -63.15234375 151.828125 C-62.03578628 149.08782802 -60.84404488 146.41689091 -59.5625 143.75 C-59.15128906 142.87859375 -58.74007812 142.0071875 -58.31640625 141.109375 C-57 139 -57 139 -54 138 C-53.9175 137.29875 -53.835 136.5975 -53.75 135.875 C-52.82297362 132.32139888 -51.08792977 130.00907526 -49 127 C-47.97069953 125.01492052 -46.96136071 123.01885749 -46 121 C-45.34 121 -44.68 121 -44 121 C-43.73832031 120.11957031 -43.47664063 119.23914063 -43.20703125 118.33203125 C-42.02032124 115.05609715 -40.61676834 112.57498587 -38.6875 109.6875 C-36.07816102 105.69295638 -33.64112426 101.68508375 -31.375 97.48828125 C-30.32656415 95.59096979 -29.23517645 93.71732717 -28.125 91.85546875 C-23.8230482 84.62988041 -20.36640741 77.45126689 -17.421875 69.5703125 C-16.39676908 66.99628281 -15.36284223 64.78243381 -14.0546875 62.375 C-11.22823162 56.84097036 -9.8988048 50.86908171 -8.375 44.875 C-7.78018071 42.58033075 -7.18387527 40.28604612 -6.5859375 37.9921875 C-6.3286084 36.98526855 -6.0712793 35.97834961 -5.80615234 34.94091797 C-4.97772197 31.91872771 -3.99181688 28.97183746 -3 26 C-1.2743277 17.41675412 -0.54274266 8.72673071 0 0 Z " fill="#2896AF" transform="translate(399,520)"/>
<path d="M0 0 C3 1 3 1 4.38671875 3.36328125 C5.03060547 4.82314453 5.03060547 4.82314453 5.6875 6.3125 C6.12449219 7.27800781 6.56148438 8.24351562 7.01171875 9.23828125 C8 12 8 12 8 16 C8.66 16 9.32 16 10 16 C13.22057288 25.28650627 16.34649017 34.46684714 18.359375 44.10546875 C18.98204032 47.09297825 18.98204032 47.09297825 20.0078125 50.328125 C21.11165148 54.41319837 21.68394742 58.36342536 22.125 62.5625 C22.2084668 63.35188965 22.29193359 64.1412793 22.37792969 64.95458984 C25.14365672 92.88843289 18.24683765 115.40971419 4.75 139.5 C4.29109375 140.32242188 3.8321875 141.14484375 3.359375 141.9921875 C2.24114997 143.99567401 1.12133664 145.99825391 0 148 C-0.66 148 -1.32 148 -2 148 C-2.226875 148.639375 -2.45375 149.27875 -2.6875 149.9375 C-3.83765898 152.62120429 -5.0721541 155.17147025 -6.4375 157.75 C-7.05431641 158.91789062 -7.05431641 158.91789062 -7.68359375 160.109375 C-9 162 -9 162 -12 163 C-12.09796875 163.71542969 -12.1959375 164.43085937 -12.296875 165.16796875 C-13.10328586 168.4160125 -14.39874251 170.53158929 -16.25 173.3125 C-16.88164062 174.27671875 -17.51328125 175.2409375 -18.1640625 176.234375 C-19.07285156 177.60335937 -19.07285156 177.60335937 -20 179 C-23.30077271 184.05257945 -26.16948881 189.1641395 -28.7890625 194.60546875 C-30 197 -30 197 -31.51953125 199.41796875 C-38.40723848 211.43056632 -41.10240586 228.386528 -37.6875 241.8125 C-36.56432374 245.60990544 -35.13073673 248.65169942 -33 252 C-33 253.32 -33 254.64 -33 256 C-44.32710973 256.16181585 -54.54527646 251.45837565 -63 244 C-64.984375 241.81640625 -64.984375 241.81640625 -66.75 239.5625 C-67.34296875 238.82128906 -67.9359375 238.08007812 -68.546875 237.31640625 C-70.10362402 234.83481441 -70.61351057 232.88341458 -71 230 C-71.66 230 -72.32 230 -73 230 C-83.3079398 204.54489676 -83.48142265 177.70710137 -72.7734375 152.0625 C-71.98865382 150.52331137 -71.17749034 148.99718014 -70.3359375 147.48828125 C-68.5722419 144.20326926 -67.13683978 140.80791743 -65.6875 137.375 C-65.17574219 136.16585937 -64.66398437 134.95671875 -64.13671875 133.7109375 C-63.76160156 132.81632813 -63.38648438 131.92171875 -63 131 C-62.34 131 -61.68 131 -61 131 C-60.79375 130.236875 -60.5875 129.47375 -60.375 128.6875 C-57.48726003 120.94310646 -53.11285514 114.00816991 -48.45703125 107.21484375 C-46.08049854 103.60225918 -44.0365636 99.81179824 -42 96 C-41.34 96 -40.68 96 -40 96 C-39.79375 95.21625 -39.5875 94.4325 -39.375 93.625 C-37.5268661 88.75264698 -35.0696244 84.22073355 -32 80 C-31.34 80 -30.68 80 -30 80 C-29.731875 79.28457031 -29.46375 78.56914063 -29.1875 77.83203125 C-27.98268693 74.95871061 -26.58762888 72.36662374 -25 69.6875 C-24.2265625 68.36298828 -24.2265625 68.36298828 -23.4375 67.01171875 C-22.963125 66.34785156 -22.48875 65.68398438 -22 65 C-21.34 65 -20.68 65 -20 65 C-19.87850586 64.26676514 -19.75701172 63.53353027 -19.63183594 62.77807617 C-19.01388467 60.06104855 -18.16479794 58.01660159 -16.890625 55.55078125 C-16.4678125 54.71144043 -16.045 53.87209961 -15.609375 53.00732422 C-15.16078125 52.11803223 -14.7121875 51.22874023 -14.25 50.3125 C-7.91181077 37.38628525 -4.10170394 24.24139684 -2 10 C-1.34 10 -0.68 10 0 10 C0 6.7 0 3.4 0 0 Z " fill="#D0722C" transform="translate(436,661)"/>
<path d="M0 0 C2.30184375 0.93767812 3.70493231 1.51473509 5.01733398 3.6730957 C5.25782471 4.33398193 5.49831543 4.99486816 5.74609375 5.67578125 C6.02332275 6.41393066 6.30055176 7.15208008 6.58618164 7.91259766 C6.8671167 8.70456543 7.14805176 9.4965332 7.4375 10.3125 C8.04913969 11.97278135 8.66112013 13.63293721 9.2734375 15.29296875 C9.56831055 16.10556152 9.86318359 16.9181543 10.16699219 17.75537109 C11.2156527 20.58109933 12.39669674 23.34587546 13.5625 26.125 C15.9890331 32.42589762 17.65288344 38.89760551 19.3125 45.4375 C19.5794165 46.48115723 19.84633301 47.52481445 20.12133789 48.60009766 C21.31909579 53.47704938 22.37351523 57.93582837 22 63 C22.66 63 23.32 63 24 63 C28.35707006 90.48516522 31.28741034 119.67712188 24 147 C23.34 147 22.68 147 22 147 C21.88785156 148.155 21.77570313 149.31 21.66015625 150.5 C21.1052235 154.89313716 19.94253859 158.84703568 18.4375 163 C18.17428955 163.73275146 17.9110791 164.46550293 17.63989258 165.22045898 C11.28944052 182.36281742 1.54771319 198.2268394 -7.88623047 213.81494141 C-10.70750796 218.48182033 -13.41159178 223.20038877 -16 228 C-16.66 228 -17.32 228 -18 228 C-18.20625 228.78375 -18.4125 229.5675 -18.625 230.375 C-20.74441627 235.96255197 -23.97964887 240.83655546 -27.1875 245.859375 C-34.55305642 257.4192066 -40.9248683 269.26241457 -46 282 C-46.66 282 -47.32 282 -48 282 C-48.226875 283.134375 -48.45375 284.26875 -48.6875 285.4375 C-49.75278728 290.25045262 -51.10625878 294.96180643 -52.5 299.6875 C-52.71358154 300.41187256 -52.92716309 301.13624512 -53.1472168 301.88256836 C-54.08690476 305.0381397 -55.05688799 308.1672825 -56.1171875 311.28515625 C-59.16422905 320.65548314 -58.09452019 331.26442083 -58 341 C-57.34 341 -56.68 341 -56 341 C-55.75765625 341.78503906 -55.5153125 342.57007813 -55.265625 343.37890625 C-53.04557668 350.45291932 -53.04557668 350.45291932 -49.75 357.0625 C-48 360 -48 360 -48 363 C-56.08299944 362.63259093 -63.36454007 361.74049239 -71 359 C-71 358.34 -71 357.68 -71 357 C-72.299375 356.62875 -72.299375 356.62875 -73.625 356.25 C-79.72557932 353.99052618 -84.15840149 350.15317864 -88.75 345.625 C-90.16539062 344.25214844 -90.16539062 344.25214844 -91.609375 342.8515625 C-94.06829946 339.91853169 -95.0667801 337.67862261 -96 334 C-93.55012383 336.42831035 -91.12594175 338.86408047 -88.78125 341.39453125 C-80.98025109 349.66305578 -72.26629316 356.37688169 -61 359 C-59.68 359 -58.36 359 -57 359 C-57.4846875 358.69449219 -57.969375 358.38898438 -58.46875 358.07421875 C-68.21348548 351.4215628 -73.7219656 341.77942001 -78 331 C-78.36996094 330.10410156 -78.73992187 329.20820312 -79.12109375 328.28515625 C-90.90038467 298.21128895 -81.85560698 265.9234673 -69.93164062 237.44873047 C-68.16371925 233.52560355 -66.19638133 229.73289586 -64.10107422 225.97558594 C-62.84806192 223.72738738 -61.62908886 221.46216197 -60.41015625 219.1953125 C-55.31526827 209.77324702 -50.00134244 200.49188701 -44.53515625 191.28125 C-37.61474164 179.62012152 -30.84785161 167.86441948 -24.25390625 156.015625 C-22.69188408 153.21323437 -21.08997707 150.43811178 -19.46484375 147.671875 C-6.7245467 125.77718968 -0.51767828 102.14750745 2 77 C2.11085938 75.98550781 2.22171875 74.97101563 2.3359375 73.92578125 C4.24328299 52.97075576 3.00286317 31.89062348 1 11 C0.81007743 8.92718569 0.62123796 6.8542718 0.43359375 4.78125 C0.35036865 3.86408203 0.26714355 2.94691406 0.18139648 2.00195312 C0.12153564 1.34130859 0.0616748 0.68066406 0 0 Z " fill="#1D6D80" transform="translate(402,526)"/>
<path d="M0 0 C0 0.66 0 1.32 0 2 C0.85851562 2.1546875 0.85851562 2.1546875 1.734375 2.3125 C10.56920411 4.99341366 18.52389217 14.74418967 23 22.4375 C24 25 24 25 24 27 C24.66 27 25.32 27 26 27 C26.80240849 28.95395654 27.59129309 30.91346768 28.375 32.875 C28.81585937 33.96554687 29.25671875 35.05609375 29.7109375 36.1796875 C35.8677382 53.25622655 35.59073769 76.25019044 28.13818359 92.92871094 C26.05404377 97.16201836 23.62387292 101.08155084 21 105 C20.43152344 105.85335937 19.86304688 106.70671875 19.27734375 107.5859375 C15.11682849 113.34967731 9.99241792 118.15521438 4 122 C3.01 122 2.02 122 1 122 C1 122.66 1 123.32 1 124 C-15.33271924 133.3277155 -35.45830726 134.86526258 -53.6875 130.4375 C-70.96458213 125.35913876 -83.03137255 114.06832987 -91.87890625 98.74609375 C-101.68707872 80.41975896 -103.24339192 57.85764123 -97.38671875 37.8671875 C-92.21739942 22.47101942 -80.3313229 7.74666103 -66 0 C-65.25492188 -0.47566406 -64.50984375 -0.95132813 -63.7421875 -1.44140625 C-45.27617294 -11.937047 -18.19527713 -9.39371556 0 0 Z M-69.19140625 22.9296875 C-78.92806678 34.07532483 -83.18822174 47.47025893 -83.125 61.9375 C-83.12886719 62.81857422 -83.13273438 63.69964844 -83.13671875 64.60742188 C-83.12986032 69.18542071 -82.93490801 73.49611775 -82 78 C-81.34 78 -80.68 78 -80 78 C-79.814375 79.2375 -79.62875 80.475 -79.4375 81.75 C-76.49281271 94.6660077 -67.63784962 103.63266601 -57 110.875 C-45.4610754 117.56757627 -31.7167103 118.25588695 -19 115 C-15.58882322 113.82265158 -12.28310482 112.49628228 -9 111 C-9 110.34 -9 109.68 -9 109 C-8.34 108.814375 -7.68 108.62875 -7 108.4375 C1.80567167 104.21811566 7.02704919 96.74049177 11 88 C11.71317601 84.76637609 11.71317601 84.76637609 12 82 C12.66 82 13.32 82 14 82 C15.6884105 75.3808927 16.33731783 69.31993894 16.3125 62.5 C16.32861328 61.61441406 16.34472656 60.72882813 16.36132812 59.81640625 C16.36792457 50.83205326 13.57759802 43.72644599 9.5625 35.8125 C8.98628906 34.66394531 8.41007813 33.51539063 7.81640625 32.33203125 C4.41276857 26.08836901 1.22852883 21.89260511 -4.5625 17.875 C-5.18382812 17.44195557 -5.80515625 17.00891113 -6.4453125 16.56274414 C-26.71115271 2.8692574 -51.51732021 6.54165762 -69.19140625 22.9296875 Z " fill="#7F8083" transform="translate(690,590)"/>
<path d="M0 0 C0.86625 -0.00773438 1.7325 -0.01546875 2.625 -0.0234375 C5.41764172 0.44506489 6.3307404 1.12369594 8 3.375 C8 4.035 8 4.695 8 5.375 C8.66 5.375 9.32 5.375 10 5.375 C11.46069025 7.62058397 12.80551961 9.86056343 14.125 12.1875 C17.52082044 18.02535947 21.15992826 23.51180387 25.203125 28.9296875 C32 38.17934783 32 38.17934783 32 41.375 C32.66 41.375 33.32 41.375 34 41.375 C35.6404154 43.61650624 37.14662087 45.8428831 38.625 48.1875 C39.04523438 48.83009766 39.46546875 49.47269531 39.8984375 50.13476562 C43 54.99354454 43 54.99354454 43 58.375 C43.99 58.705 44.98 59.035 46 59.375 C47.68742517 61.82648657 49.23488836 64.25815872 50.75 66.8125 C51.64113271 68.27862006 52.53436457 69.74346629 53.4296875 71.20703125 C53.86635742 71.92197754 54.30302734 72.63692383 54.75292969 73.37353516 C57.71950583 78.13469241 61.04452024 82.65357564 64.31640625 87.20703125 C67 91.05008711 67 91.05008711 67 94.375 C68.485 94.87 68.485 94.87 70 95.375 C71.60546875 97.66015625 71.60546875 97.66015625 73.1875 100.4375 C73.71730469 101.35660156 74.24710938 102.27570313 74.79296875 103.22265625 C75.19128906 103.93292969 75.58960938 104.64320313 76 105.375 C76.00364563 104.11854675 76.00729126 102.86209351 76.01104736 101.56756592 C76.04796026 89.73687543 76.1056924 77.90644613 76.18390274 66.07595444 C76.22344165 59.99349627 76.25559873 53.91118427 76.27099609 47.82861328 C76.2861203 41.96051268 76.32049071 36.09281376 76.36830902 30.22489166 C76.38316654 27.9841994 76.39104351 25.7434498 76.39188385 23.50270844 C76.39424207 20.36822997 76.42123009 17.23487198 76.45410156 14.10058594 C76.44655602 12.70552071 76.44655602 12.70552071 76.43885803 11.28227234 C76.54056621 5.029483 76.54056621 5.029483 78.8114624 1.79449463 C81.99959101 -0.27333891 84.28881406 -0.09733276 88 0.375 C89.69103432 1.56548309 89.69103432 1.56548309 91 3.375 C91.37752342 5.81287384 91.37752342 5.81287384 91.38095093 8.76477051 C91.3894104 9.88364151 91.39786987 11.00251251 91.40658569 12.1552887 C91.400513 13.38343796 91.39444031 14.61158722 91.38818359 15.87695312 C91.39344055 17.16979721 91.39869751 18.4626413 91.40411377 19.79466248 C91.41780315 23.34217938 91.4124822 26.88943487 91.40297651 30.43695641 C91.39538824 34.14714647 91.4024232 37.85731395 91.40713501 41.56750488 C91.41259501 47.79846216 91.40539461 54.02931281 91.39111328 60.26025391 C91.37478622 67.4670321 91.38007457 74.67355568 91.3965925 81.8803277 C91.41020047 88.06469482 91.41213042 94.24898523 91.40427649 100.43336248 C91.39959615 104.12843341 91.39898493 107.82338461 91.40888596 111.51844788 C91.4191501 115.63680128 91.40492954 119.75471482 91.38818359 123.87304688 C91.39425629 125.10119614 91.40032898 126.3293454 91.40658569 127.5947113 C91.39812622 128.71358231 91.38966675 129.83245331 91.38095093 130.98522949 C91.37981985 131.95935539 91.37868877 132.93348129 91.37752342 133.93712616 C91 136.375 91 136.375 89.68712807 138.18451691 C86.80696665 140.21683653 84.39999318 139.785344 81 139.375 C76.78678454 136.59294027 74.31702996 133.1906126 71.75 128.9375 C70.97613254 127.6913555 70.2000285 126.4465976 69.421875 125.203125 C69.02677734 124.57083984 68.63167969 123.93855469 68.22460938 123.28710938 C65.54338775 119.10064052 62.62807033 115.07181431 59.75 111.01953125 C58 108.375 58 108.375 57 105.375 C56.40703125 104.78976562 55.8140625 104.20453125 55.203125 103.6015625 C52.5553605 100.92563029 50.68031161 97.95288742 48.75 94.75 C48.38648438 94.16476562 48.02296875 93.57953125 47.6484375 92.9765625 C45 88.63551457 45 88.63551457 45 86.375 C44.01 86.045 43.02 85.715 42 85.375 C40.5 83.265625 40.5 83.265625 39 80.625 C38.505 79.76390625 38.01 78.9028125 37.5 78.015625 C37.005 77.14421875 36.51 76.2728125 36 75.375 C35.443125 74.48296875 34.88625 73.5909375 34.3125 72.671875 C33 70.375 33 70.375 33 68.375 C32.34 68.375 31.68 68.375 31 68.375 C29.58984375 66.42578125 29.58984375 66.42578125 27.9375 63.6875 C25.21726244 59.28411545 22.40196469 54.98985938 19.4375 50.75 C18.6846875 49.6671875 17.931875 48.584375 17.15625 47.46875 C15.80463161 45.52947144 14.4508079 43.59172603 13.09375 41.65625 C12.5471875 40.8621875 12.000625 40.068125 11.4375 39.25 C10.96183594 38.56679688 10.48617188 37.88359375 9.99609375 37.1796875 C9 35.375 9 35.375 9 32.375 C8.34 32.375 7.68 32.375 7 32.375 C6.99413376 33.67125809 6.98826752 34.96751617 6.98222351 36.30305481 C6.92508197 48.50192812 6.85236544 60.70062169 6.76428509 72.89931202 C6.71950259 79.17122432 6.68026386 85.44307047 6.65356445 91.71508789 C6.62761011 97.76467508 6.58726367 103.81400877 6.53681374 109.86343956 C6.52009167 112.17473899 6.50861078 114.48608231 6.50238609 116.79743385 C6.49280307 120.02774438 6.46481319 123.2573985 6.43237305 126.48754883 C6.43380814 127.44923981 6.43524323 128.41093079 6.4367218 129.40176392 C6.42418365 130.28095993 6.41164551 131.16015594 6.39872742 132.06599426 C6.39411845 132.83016065 6.38950949 133.59432703 6.38476086 134.38164997 C5.89711831 136.90800439 4.99858852 137.80286071 3 139.375 C1.0625 139.7734375 1.0625 139.7734375 -1 139.75 C-1.680625 139.75773438 -2.36125 139.76546875 -3.0625 139.7734375 C-5.63247313 139.24493496 -6.398313 138.44397956 -8 136.375 C-8.37752342 133.93712616 -8.37752342 133.93712616 -8.38095093 130.98522949 C-8.3894104 129.86635849 -8.39786987 128.74748749 -8.40658569 127.5947113 C-8.400513 126.36656204 -8.39444031 125.13841278 -8.38818359 123.87304688 C-8.39344055 122.58020279 -8.39869751 121.2873587 -8.40411377 119.95533752 C-8.41780315 116.40782062 -8.4124822 112.86056513 -8.40297651 109.31304359 C-8.39538824 105.60285353 -8.4024232 101.89268605 -8.40713501 98.18249512 C-8.41259501 91.95153784 -8.40539461 85.72068719 -8.39111328 79.48974609 C-8.37478622 72.2829679 -8.38007457 65.07644432 -8.3965925 57.8696723 C-8.41020047 51.68530518 -8.41213042 45.50101477 -8.40427649 39.31663752 C-8.39959615 35.62156659 -8.39898493 31.92661539 -8.40888596 28.23155212 C-8.4191501 24.11319872 -8.40492954 19.99528518 -8.38818359 15.87695312 C-8.39729263 14.03472923 -8.39729263 14.03472923 -8.40658569 12.1552887 C-8.39389648 10.47698219 -8.39389648 10.47698219 -8.38095093 8.76477051 C-8.37981985 7.79064461 -8.37868877 6.81651871 -8.37752342 5.81287384 C-8 3.375 -8 3.375 -6.62462807 1.56304169 C-4.37280228 -0.08365085 -2.76447525 -0.02468281 0 0 Z " fill="#808184" transform="translate(1059,582.625)"/>
<path d="M0 0 C0 0.66 0 1.32 0 2 C0.721875 2.2475 1.44375 2.495 2.1875 2.75 C5.86397353 4.38398823 9.16101709 6.32203419 11 10 C11.35294118 16.47058824 11.35294118 16.47058824 9 20 C4.38584445 21.53805185 0.19534482 22.06499215 -4.23046875 19.91796875 C-6.20346256 18.67092166 -8.10275225 17.35835813 -10 16 C-10.66 15.67 -11.32 15.34 -12 15 C-12 14.34 -12 13.68 -12 13 C-24.09227281 9.53572725 -37.32703323 6.54071202 -49.25390625 12.0390625 C-54.73664204 15.16916949 -57.97441638 18.92324915 -60 25 C-60.60277077 30.9813407 -60.02557945 35.67915337 -57 41 C-53.44854538 44.55145462 -49.60312184 46.19485418 -45 48 C-45 48.66 -45 49.32 -45 50 C-44.41444336 50.1139209 -43.82888672 50.2278418 -43.22558594 50.34521484 C-9.72579035 56.94405737 -9.72579035 56.94405737 3 66 C4.11568359 66.7734375 4.11568359 66.7734375 5.25390625 67.5625 C12.35290529 73.01642828 14.539458 80.22031216 15.74609375 88.8515625 C16.64642466 100.01566577 14.68330666 109.94638584 7.375 118.625 C5.5859375 120.6015625 5.5859375 120.6015625 4 122 C3.34 122 2.68 122 2 122 C1.67 122.99 1.34 123.98 1 125 C-8.80836603 130.81236505 -18.96374925 132.54668515 -30.25 132.4375 C-31.88980835 132.42722778 -31.88980835 132.42722778 -33.56274414 132.41674805 C-51.36000047 132.06525256 -65.87931613 125.67988432 -80 115 C-82.46220488 111.30669268 -82.67270703 108.2863512 -82 104 C-80.5 101.5 -80.5 101.5 -78 100 C-73.6115506 99.16770787 -71.40982704 99.21014385 -67.50390625 101.3984375 C-64.28952079 103.63921154 -61.21824565 106.02488618 -58.16015625 108.47265625 C-48.30346967 116.05650687 -35.01571607 116.82670407 -23 116 C-19.53977496 115.27892469 -16.30432935 114.24296933 -13 113 C-11.989375 112.67 -10.97875 112.34 -9.9375 112 C-7.64657009 111.10301684 -7.64657009 111.10301684 -7 108 C-6.34 108 -5.68 108 -5 108 C-1.92026569 100.40332203 -0.98867598 94.33424581 -2.875 86.25 C-9.84275133 75.59343914 -25.79816633 72.62264735 -37.5625 70 C-50.600811 67.07640837 -65.29720927 62.85044728 -73 51 C-76.17765797 45.94098496 -78.12324078 41.81807148 -78.1328125 35.8125 C-78.13410156 35.03132812 -78.13539063 34.25015625 -78.13671875 33.4453125 C-78.13091797 32.23488281 -78.13091797 32.23488281 -78.125 31 C-78.12886719 30.19304688 -78.13273437 29.38609375 -78.13671875 28.5546875 C-78.13478516 27.38292969 -78.13478516 27.38292969 -78.1328125 26.1875 C-78.13112061 25.12595703 -78.13112061 25.12595703 -78.12939453 24.04296875 C-77.99511502 21.92287267 -77.57716498 20.04042437 -77 18 C-76.34 18 -75.68 18 -75 18 C-74.9175 17.29875 -74.835 16.5975 -74.75 15.875 C-73.24204284 10.09449754 -69.37742009 5.91663902 -65 2 C-64.34 2 -63.68 2 -63 2 C-63 1.34 -63 0.68 -63 0 C-43.08106084 -10.89904218 -20.31492875 -9.06638125 0 0 Z " fill="#7F8083" transform="translate(567,590)"/>
<path d="M0 0 C0.74121094 -0.02191406 1.48242188 -0.04382813 2.24609375 -0.06640625 C5.70896574 0.87376642 7.20906934 2.90094729 9.5625 5.5625 C10.98461914 8.48168945 10.98461914 8.48168945 12.09765625 11.67578125 C12.51466797 12.84173828 12.93167969 14.00769531 13.36132812 15.20898438 C13.77833984 16.41876953 14.19535156 17.62855469 14.625 18.875 C18.14353365 29.00071739 18.14353365 29.00071739 22.64038086 38.70922852 C24.34844562 42.14209048 25.56056631 45.75652839 26.8125 49.375 C27.2146875 50.49938477 27.2146875 50.49938477 27.625 51.64648438 C28.70562639 54.73123163 29.5625 57.27006292 29.5625 60.5625 C30.2225 60.5625 30.8825 60.5625 31.5625 60.5625 C31.87477539 61.42415771 32.18705078 62.28581543 32.50878906 63.17358398 C33.68411961 66.41183278 34.86235276 69.64899592 36.04248047 72.88549805 C36.5498077 74.27863727 37.05602038 75.67218295 37.56103516 77.06616211 C40.0606276 83.96355235 42.57191425 90.81444981 45.63769531 97.4855957 C47.37983471 101.39805078 48.83571375 105.41912024 50.3125 109.4375 C50.62832031 110.27796875 50.94414063 111.1184375 51.26953125 111.984375 C51.56730469 112.79132813 51.86507813 113.59828125 52.171875 114.4296875 C52.43967773 115.15269043 52.70748047 115.87569336 52.98339844 116.62060547 C53.5625 118.5625 53.5625 118.5625 53.5625 121.5625 C54.2225 121.5625 54.8825 121.5625 55.5625 121.5625 C59.2820572 131.52559963 59.2820572 131.52559963 58.5625 136.5625 C56.96552216 138.65509166 56.03275134 139.45857705 53.44140625 140.03125 C52.67699219 140.0415625 51.91257812 140.051875 51.125 140.0625 C49.98224609 140.10890625 49.98224609 140.10890625 48.81640625 140.15625 C45.41664631 139.260646 44.4604118 137.46404006 42.5625 134.5625 C41.50171324 132.28628493 40.52783012 129.96835686 39.625 127.625 C39.37411621 126.97764893 39.12323242 126.33029785 38.86474609 125.66333008 C38.08441943 123.63433325 37.3205717 121.59990886 36.5625 119.5625 C36.31258301 118.89250977 36.06266602 118.22251953 35.80517578 117.53222656 C31.5625 106.08569481 31.5625 106.08569481 31.5625 103.5625 C10.7725 103.5625 -10.0175 103.5625 -31.4375 103.5625 C-32.4275 106.8625 -33.4175 110.1625 -34.4375 113.5625 C-35.15490017 115.77468379 -35.88189758 117.98381696 -36.625 120.1875 C-36.96917969 121.21101562 -37.31335938 122.23453125 -37.66796875 123.2890625 C-37.92191406 124.03929687 -38.17585937 124.78953125 -38.4375 125.5625 C-39.0975 125.5625 -39.7575 125.5625 -40.4375 125.5625 C-40.53546875 126.15417969 -40.6334375 126.74585938 -40.734375 127.35546875 C-42.44360507 136.38786557 -42.44360507 136.38786557 -46.4375 139.5625 C-49.58600937 140.25266238 -52.2928501 140.28042951 -55.4375 139.5625 C-57.625 137.625 -57.625 137.625 -58.4375 134.5625 C-58.09695421 128.38222463 -55.35871237 122.74707931 -52.93359375 117.1484375 C-50.14274642 110.45914809 -47.73893938 103.62045679 -45.26074219 96.81054688 C-44.00692404 93.38671606 -42.72287837 89.9745953 -41.4375 86.5625 C-40.7775 86.5625 -40.1175 86.5625 -39.4375 86.5625 C-39.06044922 84.65597656 -39.06044922 84.65597656 -38.67578125 82.7109375 C-37.47803971 77.33319367 -35.62773263 72.31088902 -33.625 67.1875 C-33.26607666 66.25558838 -32.90715332 65.32367676 -32.53735352 64.36352539 C-30.77929705 59.8407163 -28.96486322 55.38174655 -26.875 51 C-22.9930597 42.83728991 -20.33565174 34.11123108 -17.4375 25.5625 C-16.7775 25.5625 -16.1175 25.5625 -15.4375 25.5625 C-15.210625 24.325 -14.98375 23.0875 -14.75 21.8125 C-9.87206829 -0.0171093 -9.87206829 -0.0171093 0 0 Z M-0.4375 23.5625 C-0.66824219 24.14515625 -0.89898438 24.7278125 -1.13671875 25.328125 C-2.95858066 29.9079834 -4.81842836 34.4652838 -6.75 39 C-9.31405548 45.11428614 -11.58044789 51.32392216 -13.84204102 57.55444336 C-15.81599386 62.96431632 -17.93547623 68.27630627 -20.296875 73.53125 C-22.0142777 78.09530648 -23.15441252 82.85784591 -24.4375 87.5625 C-8.2675 87.5625 7.9025 87.5625 24.5625 87.5625 C22.69022445 81.32158152 20.87171545 75.58988754 18.3125 69.6875 C15.2368679 62.42818258 12.55984302 55.07426149 10.04785156 47.60205078 C8.42548912 42.82596447 6.60358132 38.22483818 4.49194336 33.64282227 C3.01693809 30.3413986 1.79791752 26.95989817 0.5625 23.5625 C0.2325 23.5625 -0.0975 23.5625 -0.4375 23.5625 Z " fill="#7F8083" transform="translate(978.4375,582.4375)"/>
<path d="M0 0 C67.11677282 0 67.11677282 0 76 8 C83.90847003 17.46645556 84.93683203 27.10579081 84 39 C82.14715289 46.84408925 76.63347358 53.57768428 70 58 C70.87011719 58.52787109 70.87011719 58.52787109 71.7578125 59.06640625 C80.49769589 64.59012793 86.55811876 70.67001927 89 81 C90.14119993 91.91126874 89.0203395 100.09284458 82.25 108.75 C76.85970031 114.61671506 69.83107139 118.63566909 61.81082153 119.24050903 C60.66942719 119.23606781 59.52803284 119.23162659 58.35205078 119.22705078 C57.03309814 119.22680908 55.71414551 119.22656738 54.35522461 119.22631836 C52.96858527 119.21625014 51.58194784 119.20591716 50.1953125 119.1953125 C48.92357178 119.19329834 47.65183105 119.19128418 46.34155273 119.18920898 C41.602665 119.17876531 36.86382878 119.15084275 32.125 119.125 C21.52375 119.08375 10.9225 119.0425 0 119 C0 79.73 0 40.46 0 0 Z M12 12 C12 25.86 12 39.72 12 54 C18.28125713 54.09203307 24.56015756 54.1716117 30.84155273 54.21972656 C32.97639918 54.23979182 35.111191 54.26705058 37.24584961 54.30175781 C40.32158925 54.35049943 43.39659969 54.37302006 46.47265625 54.390625 C47.42084732 54.41127014 48.36903839 54.43191528 49.34596252 54.45318604 C55.46426502 54.45523898 58.9914042 53.56870058 64 50 C69.1181421 44.8818579 71.51850734 39.71437191 72.4375 32.625 C71.49472494 24.81343524 68.91473974 18.95746799 62.68359375 14.05859375 C59.60340613 12.12186325 56.97360708 11.87678464 53.43676758 11.88647461 C52.51603958 11.88655014 51.59531158 11.88662567 50.64668274 11.88670349 C49.65597275 11.89186478 48.66526276 11.89702606 47.64453125 11.90234375 C46.62775803 11.9037587 45.6109848 11.90517365 44.56340027 11.90663147 C41.31307036 11.91223293 38.06280912 11.92478568 34.8125 11.9375 C32.61002704 11.94251481 30.40755299 11.94707775 28.20507812 11.95117188 C22.80333762 11.96135231 17.40174575 11.98092754 12 12 Z M12 65 C12 79.19 12 93.38 12 108 C18.86886775 108.06894403 25.73653043 108.12865783 32.60546875 108.16479492 C34.94112216 108.17986261 37.27674737 108.20032049 39.61230469 108.22631836 C42.97337819 108.26278958 46.33407692 108.2797469 49.6953125 108.29296875 C50.73615997 108.30845261 51.77700745 108.32393646 52.84939575 108.33988953 C59.83520422 108.34150384 64.18759105 107.41063624 69.625 102.75 C74.58857585 97.00270164 77.47636705 91.69516 77 84 C75.52002528 76.65187377 72.73312235 71.9202402 66.90234375 67.2421875 C63.61477612 65.0954801 60.88901999 64.87685385 57.06958008 64.88647461 C55.56836357 64.88658791 55.56836357 64.88658791 54.03681946 64.88670349 C52.95861435 64.89186478 51.88040924 64.89702606 50.76953125 64.90234375 C49.66397385 64.9037587 48.55841644 64.90517365 47.4193573 64.90663147 C43.88371083 64.91223486 40.34812738 64.92478796 36.8125 64.9375 C34.41731862 64.94251456 32.02213625 64.94707754 29.62695312 64.95117188 C23.75125819 64.96135506 17.87569975 64.98092993 12 65 Z " fill="#818285" transform="translate(629,770)"/>
<path d="M0 0 C10.23115995 -0.09265338 20.4622202 -0.1637413 30.69371414 -0.20724869 C35.44456036 -0.22812944 40.19511969 -0.2564559 44.94580078 -0.30175781 C49.52993339 -0.3451983 54.11378994 -0.36913343 58.69811249 -0.37950897 C60.44765316 -0.38690359 62.19717862 -0.40134355 63.94660187 -0.42292023 C66.39604925 -0.45193101 68.84435395 -0.45595708 71.29394531 -0.45410156 C72.01827255 -0.46848267 72.74259979 -0.48286377 73.48887634 -0.49768066 C76.86976211 -0.46994288 78.69800853 -0.2238623 81.44647217 1.8135376 C83.74929786 5.05457498 83.61235743 7.12173625 83 11 C80.45706706 14.22171673 78.97361054 15.81157822 74.89311218 16.60127258 C73.73173233 16.59016953 72.57035248 16.57906647 71.3737793 16.56762695 C70.72931351 16.56835709 70.08484772 16.56908722 69.42085266 16.56983948 C67.30443211 16.56637391 65.19025152 16.52757027 63.07421875 16.48828125 C61.60164085 16.47894924 60.12904737 16.47183496 58.65644836 16.46684265 C54.79105346 16.44780274 50.92660633 16.39872989 47.06158447 16.34332275 C42.41863338 16.28304329 37.77536436 16.2601995 33.13213348 16.23105621 C26.08743096 16.18266081 19.04480562 16.08682998 12 16 C12 31.84 12 47.68 12 64 C16.29644531 63.95359375 20.59289062 63.9071875 25.01953125 63.859375 C28.4437895 63.83365395 31.86802049 63.81196189 35.29232025 63.79299927 C38.9080491 63.77186954 42.52340339 63.74363161 46.13891602 63.69824219 C49.62079774 63.65480357 53.1023161 63.63086737 56.58444786 63.62049103 C58.56047435 63.60949496 60.53635448 63.57826547 62.51216125 63.54681396 C63.71317978 63.54651184 64.9141983 63.54620972 66.15161133 63.54589844 C67.21084305 63.53701599 68.27007477 63.52813354 69.36140442 63.51898193 C72 64 72 64 73.84062195 65.90118408 C75.80417349 69.45579099 75.38317708 71.97664067 75 76 C73.18836733 78.67431489 72.12238923 78.95920359 69 80 C67.14405272 80.08840088 65.28504883 80.11762704 63.42700195 80.11352539 C62.28604568 80.11344986 61.14508942 80.11337433 59.96955872 80.11329651 C58.73823715 80.10813522 57.50691559 80.10297394 56.23828125 80.09765625 C54.97735153 80.0962413 53.71642181 80.09482635 52.4172821 80.09336853 C49.06848291 80.08871575 45.71975189 80.07973342 42.37097168 80.06866455 C38.95239857 80.05842687 35.53381841 80.05386586 32.11523438 80.04882812 C25.41013739 80.03779099 18.70507263 80.02104686 12 80 C12.01110306 80.66541306 12.02220612 81.33082611 12.03364563 82.0164032 C12.14427659 88.94300919 12.21968339 95.86936418 12.2746582 102.79663086 C12.29980001 105.3816955 12.33391815 107.96668907 12.37719727 110.55151367 C12.43785922 114.26759374 12.46621419 117.98273386 12.48828125 121.69921875 C12.51408768 122.85459641 12.5398941 124.00997406 12.56648254 125.20036316 C12.56927551 133.19304636 12.56927551 133.19304636 9.70776367 137.24926758 C6.27657019 139.46774097 4.00855526 139.39299561 0 139 C-0.66 137.68 -1.32 136.36 -2 135 C-2.66 135 -3.32 135 -4 135 C-4 91.77 -4 48.54 -4 4 C-3.34 4 -2.68 4 -2 4 C-1.34 2.68 -0.68 1.36 0 0 Z " fill="#808184" transform="translate(741,583)"/>
<path d="M0 0 C0.96545746 -0.00637985 1.93091492 -0.0127597 2.92562866 -0.01933289 C3.97964874 -0.02044571 5.03366882 -0.02155853 6.11962891 -0.02270508 C7.2019278 -0.02603348 8.28422668 -0.02936188 9.39932251 -0.03279114 C11.70110651 -0.03786907 14.00289791 -0.0401992 16.3046875 -0.04003906 C19.79651441 -0.04220551 23.28801508 -0.06029609 26.77978516 -0.0793457 C29.01806533 -0.08228361 31.256347 -0.08426574 33.49462891 -0.08520508 C35.04529556 -0.09598335 35.04529556 -0.09598335 36.62728882 -0.10697937 C49.12742833 -0.06840454 59.70331785 1.48816521 69.09619141 10.14526367 C77.89425598 19.33908893 80.82203021 29.38836191 80.68212891 41.79760742 C80.00853735 52.4877549 75.24012527 60.96793315 67.34619141 68.08276367 C63.35818377 71.47016775 60.8094595 73.14526367 55.47119141 73.14526367 C60.05768572 82.10537704 65.44995209 90.44853412 70.96728516 98.85327148 C73.54183906 102.77695851 76.101541 106.71022111 78.65869141 110.64526367 C79.14039795 111.38147949 79.62210449 112.11769531 80.1184082 112.8762207 C83.47119141 118.03217627 83.47119141 118.03217627 83.47119141 119.14526367 C78.39138298 120.194131 73.42747851 120.96315361 68.47119141 119.14526367 C64.0725271 115.45087989 61.62004636 109.82953945 58.96337891 104.8425293 C56.19215981 99.83329687 53.01575443 95.07544195 49.90869141 90.27026367 C48.71830783 88.39887288 47.52939782 86.52654356 46.34228516 84.65307617 C44.74277111 82.13144139 43.12779199 79.63016455 41.47119141 77.14526367 C38.85646484 76.80760283 36.46002253 76.65615787 33.83837891 76.63354492 C33.17201416 76.61690796 32.50564941 76.600271 31.8190918 76.58312988 C29.32844647 76.52527041 26.83725861 76.49306312 24.34619141 76.45776367 C18.77744141 76.35463867 13.20869141 76.25151367 7.47119141 76.14526367 C7.47119141 90.33526367 7.47119141 104.52526367 7.47119141 119.14526367 C3.18119141 119.14526367 -1.10880859 119.14526367 -5.52880859 119.14526367 C-5.55192801 103.7772487 -5.56978804 88.40923573 -5.58062077 73.04120731 C-5.58578361 65.90604626 -5.59282608 58.77089619 -5.60424805 51.63574219 C-5.61525534 44.7563663 -5.62108476 37.87700186 -5.62368584 30.99761772 C-5.62554065 28.36644752 -5.62916232 25.73527798 -5.63453865 23.10411263 C-5.64174495 19.43300117 -5.64279971 15.76193764 -5.64233398 12.09082031 C-5.64592926 10.99102844 -5.64952454 9.89123657 -5.65322876 8.75811768 C-5.65116676 7.26675041 -5.65116676 7.26675041 -5.64906311 5.74525452 C-5.6499849 4.87600373 -5.6509067 4.00675295 -5.65185642 3.11116123 C-5.41474211 -0.67714164 -3.28418298 0.01467867 0 0 Z M7.47119141 12.14526367 C7.47119141 29.63526367 7.47119141 47.12526367 7.47119141 65.14526367 C17.09275391 65.23807617 17.09275391 65.23807617 26.90869141 65.33276367 C28.91503662 65.36007568 30.92138184 65.3873877 32.98852539 65.41552734 C34.60643922 65.42430188 36.22435976 65.43194352 37.84228516 65.43823242 C38.65991333 65.45358032 39.4775415 65.46892822 40.31994629 65.48474121 C46.94510103 65.48770284 53.1100772 64.32622762 58.74072266 60.67260742 C65.17142847 54.0465384 67.65348309 47.36031258 68.03369141 38.14526367 C67.77294978 30.39871408 65.81413945 24.76454411 60.53369141 19.04760742 C53.88943215 12.91928497 48.6317788 11.84735769 39.79541016 11.94995117 C38.56449646 11.95297241 38.56449646 11.95297241 37.30871582 11.95605469 C34.2586504 11.96647745 31.20866498 11.99439995 28.15869141 12.02026367 C21.33181641 12.06151367 14.50494141 12.10276367 7.47119141 12.14526367 Z " fill="#818285" transform="translate(744.52880859375,769.854736328125)"/>
<path d="M0 0 C62.97029703 0 62.97029703 0 74.2265625 9.97265625 C81.21581583 17.1844139 85.53267617 26.34514946 86.06640625 36.4375 C85.77609547 47.64008087 82.55132355 57.9586551 74.95703125 66.39453125 C70.82620253 69.78329493 65.85816643 71.85391677 61 74 C64.94569414 81.40660117 69.39109593 88.45032981 73.9375 95.5 C74.62779297 96.57636719 75.31808594 97.65273438 76.02929688 98.76171875 C79.60105034 104.32078908 83.2097193 109.84229714 86.97094727 115.27539062 C88 117 88 117 88 119 C85.81952384 119.27218149 83.62906773 119.46503155 81.4375 119.625 C80.21933594 119.74101563 79.00117187 119.85703125 77.74609375 119.9765625 C71.7997335 118.42641645 70.05538562 114.06909696 67 109 C65.65551202 106.91982382 64.30775198 104.84175948 62.95703125 102.765625 C61.57332118 100.59515074 60.1918328 98.42325863 58.8125 96.25 C57.4236813 94.06738741 56.03437404 91.88508561 54.64453125 89.703125 C54.03971924 88.75083008 53.43490723 87.79853516 52.81176758 86.81738281 C51.50036629 84.77809284 50.14838292 82.76471192 48.7722168 80.76855469 C47 78 47 78 47 76 C35.45 76 23.9 76 12 76 C12 90.19 12 104.38 12 119 C8.04 119 4.08 119 0 119 C0 79.73 0 40.46 0 0 Z M12 12 C12 29.49 12 46.98 12 65 C21.6215625 65.0928125 21.6215625 65.0928125 31.4375 65.1875 C33.44384521 65.21481201 35.45019043 65.24212402 37.51733398 65.27026367 C39.13524781 65.27903821 40.75316835 65.28667985 42.37109375 65.29296875 C43.18872192 65.30831665 44.0063501 65.32366455 44.84875488 65.33947754 C52.35640454 65.34283366 59.92733283 63.88690064 65.65234375 58.65625 C70.8393649 52.28147618 73.38856616 44.69951186 73.28125 36.5703125 C72.47242077 29.17851201 69.51132055 22.03207528 64 17 C54.85008404 9.82628802 43.32223378 11.45039247 32.375 11.6875 C25.65125 11.790625 18.9275 11.89375 12 12 Z " fill="#818285" transform="translate(960,770)"/>
<path d="M0 0 C2 1.375 2 1.375 3 3 C3 3.66 3 4.32 3 5 C3.66 5 4.32 5 5 5 C6.953125 8.41796875 8.90625 11.8359375 10.859375 15.25390625 C11.21612305 15.87765137 11.57287109 16.50139648 11.94042969 17.14404297 C12.94293103 18.90003725 13.94036999 20.65891884 14.9375 22.41796875 C16.44941393 25.06605249 18.00455751 27.68497297 19.578125 30.296875 C20.01640625 31.02777344 20.4546875 31.75867188 20.90625 32.51171875 C21.81312236 34.02229392 22.72469915 35.53005338 23.640625 37.03515625 C24.07375 37.76089844 24.506875 38.48664062 24.953125 39.234375 C25.34661133 39.88631836 25.74009766 40.53826172 26.14550781 41.20996094 C27 43 27 43 27 46 C27.99 46.33 28.98 46.66 30 47 C31.49754309 49.44151967 32.83307241 51.8290035 34.125 54.375 C34.48464844 55.06078125 34.84429688 55.7465625 35.21484375 56.453125 C36.6775949 59.26905793 37.99516375 61.98549126 39 65 C42.76088506 63.75191868 44.04573761 61.63864739 45.83984375 58.203125 C46.14019531 57.59984375 46.44054687 56.9965625 46.75 56.375 C47.22373047 55.45847656 47.22373047 55.45847656 47.70703125 54.5234375 C48.48175518 53.02094261 49.24229671 51.51114982 50 50 C50.66 50 51.32 50 52 50 C52.26683594 49.29230469 52.53367187 48.58460938 52.80859375 47.85546875 C54.04981473 44.88060796 55.49816456 42.12984122 57.0625 39.3125 C59.08258292 35.68323434 59.08258292 35.68323434 61 32 C61.66 32 62.32 32 63 32 C63.36738281 30.74316406 63.36738281 30.74316406 63.7421875 29.4609375 C65.161461 25.55573153 67.01857766 22.19028729 69.125 18.625 C69.49753906 17.98433594 69.87007812 17.34367188 70.25390625 16.68359375 C71.16434002 15.11951523 72.08148191 13.55934466 73 12 C73.66 12 74.32 12 75 12 C75.226875 11.13375 75.45375 10.2675 75.6875 9.375 C77.25982754 5.33187203 78.78714833 2.93347327 82 0 C85.72171293 -0.9100809 88.93498178 -0.42600729 92.5 1 C94.41224918 3.54966557 94.4299185 5.61476976 94.36572266 8.74414062 C93.67831871 12.98420233 91.28780054 16.23236194 88.9375 19.75 C87.92586599 21.32473946 86.91545204 22.90026336 85.90625 24.4765625 C85.40996094 25.24129883 84.91367187 26.00603516 84.40234375 26.79394531 C81.876387 30.76757783 79.62180411 34.890241 77.33984375 39.0078125 C76.89769531 39.66523437 76.45554687 40.32265625 76 41 C75.34 41 74.68 41 74 41 C73.62875 42.28970703 73.62875 42.28970703 73.25 43.60546875 C71.90097393 47.26891766 70.17291008 50.07253586 68 53.3125 C63.93063125 59.46646602 60.14417793 65.75175185 56.45117188 72.13793945 C56.05865234 72.81429443 55.66613281 73.49064941 55.26171875 74.1875 C54.92100342 74.77917969 54.58028809 75.37085938 54.22924805 75.98046875 C53 78 53 78 50.89013672 80.51318359 C48.16995657 85.53121678 48.45319108 89.98059935 48.49609375 95.6015625 C48.48667252 96.71558441 48.47725128 97.82960632 48.46754456 98.97738647 C48.43892218 102.5267793 48.43581618 106.07550112 48.4375 109.625 C48.4338954 113.18154161 48.42441083 116.73759721 48.39674377 120.29403687 C48.37992111 122.50428088 48.37710627 124.71468544 48.38975525 126.92495728 C48.38287186 127.92634735 48.37598846 128.92773743 48.36889648 129.95947266 C48.36985825 130.8385025 48.37082001 131.71753235 48.37181091 132.62319946 C47.92056953 135.50775914 46.98319441 136.8858068 45 139 C42.84375 139.53125 42.84375 139.53125 40.5 139.5 C39.7265625 139.5103125 38.953125 139.520625 38.15625 139.53125 C35.18660471 138.79959826 34.57038614 137.57960425 33 135 C32.63491821 132.64338684 32.63491821 132.64338684 32.64697266 130.00708008 C32.64331696 129.01537308 32.63966125 128.02366608 32.63589478 127.00190735 C32.64519012 125.93522324 32.65448547 124.86853912 32.6640625 123.76953125 C32.6515449 121.49934613 32.63850755 119.22916382 32.625 116.95898438 C32.62107808 113.38881365 32.6249736 109.81892307 32.63964844 106.2487793 C32.6482571 102.79694334 32.62646441 99.34626547 32.6015625 95.89453125 C32.61490631 94.83796829 32.62825012 93.78140533 32.64199829 92.69282532 C32.57131433 85.54306048 31.03975173 80.88706179 27 75 C26.46375 74.17628906 25.9275 73.35257813 25.375 72.50390625 C24.92125 71.86324219 24.4675 71.22257813 24 70.5625 C21.2933771 66.60345519 19.18500084 62.51391934 17.17578125 58.1640625 C16.13700114 55.99894333 16.13700114 55.99894333 14.59375 54.625 C12.23365509 52.21862872 10.79525076 49.30744406 9.1875 46.375 C6.47801803 41.52684518 3.64537794 36.86256134 0.5 32.28125 C-1.94971015 28.55564914 -4.11196675 24.66493496 -6.3203125 20.79296875 C-7.74002223 18.43228862 -9.22730152 16.33732577 -10.9375 14.1875 C-13.40137597 10.37969168 -13.83931147 8.4483508 -13 4 C-9.18382247 -0.65096636 -5.62178848 -0.63471805 0 0 Z " fill="#7F8083" transform="translate(852,583)"/>
<path d="M0 0 C2.57161458 0.03255208 5.14322917 0.06510417 7.71484375 0.09765625 C13.35857205 10.69705309 17.80801916 21.74221765 22.33984375 32.84765625 C24.02017925 36.94611617 25.70361246 41.04330233 27.38671875 45.140625 C27.81890717 46.19402573 28.25109558 47.24742645 28.69638062 48.33274841 C31.84905503 56.01113447 35.03128489 63.67682129 38.23046875 71.3359375 C38.90636551 72.95437057 38.90636551 72.95437057 39.59591675 74.60549927 C41.35390253 78.81334635 43.11269595 83.0208511 44.87432861 87.22717285 C49.30150509 97.79969552 53.67817296 108.36861019 57.71484375 119.09765625 C53.09484375 119.09765625 48.47484375 119.09765625 43.71484375 119.09765625 C42.04191138 115.20182138 40.369358 111.3058282 38.69775391 107.40942383 C38.12961461 106.08543614 37.56125818 104.7615416 36.99267578 103.43774414 C36.17292353 101.52905653 35.35396654 99.62002936 34.53515625 97.7109375 C33.79676514 95.99064331 33.79676514 95.99064331 33.04345703 94.2355957 C32.38579346 92.68231567 32.38579346 92.68231567 31.71484375 91.09765625 C31.13259033 89.74837036 31.13259033 89.74837036 30.53857422 88.37182617 C29.71484375 86.09765625 29.71484375 86.09765625 29.71484375 83.09765625 C12.22484375 83.42765625 -5.26515625 83.75765625 -23.28515625 84.09765625 C-27.85027717 95.2409431 -27.85027717 95.2409431 -32.40991211 106.38647461 C-32.9814085 107.77856502 -33.55309154 109.17057883 -34.125 110.5625 C-34.42216919 111.29150513 -34.71933838 112.02051025 -35.0255127 112.77160645 C-37.17108445 117.98358445 -37.17108445 117.98358445 -38.28515625 119.09765625 C-40.47155078 119.17024571 -42.66016014 119.18139408 -44.84765625 119.16015625 C-46.04519531 119.15113281 -47.24273438 119.14210938 -48.4765625 119.1328125 C-49.86681641 119.11541016 -49.86681641 119.11541016 -51.28515625 119.09765625 C-50.701977 115.81106267 -49.91227982 112.88207381 -48.62133789 109.80615234 C-48.27842712 108.98272339 -47.93551636 108.15929443 -47.58221436 107.31091309 C-47.20703674 106.42327271 -46.83185913 105.53563232 -46.4453125 104.62109375 C-46.05152405 103.67915161 -45.6577356 102.73720947 -45.25201416 101.76672363 C-43.95487962 98.66687227 -42.65126223 95.56979101 -41.34765625 92.47265625 C-40.44316438 90.3141488 -39.53911688 88.1554551 -38.63549805 85.99658203 C-36.31056502 80.44467127 -33.98051194 74.89492513 -31.64916992 69.34570312 C-28.34003433 61.46584991 -25.04025123 53.58207374 -21.73944092 45.69873047 C-20.60775823 42.99677528 -19.47509184 40.29523411 -18.34228516 37.59375 C-14.05279358 27.35883751 -9.79194534 17.11392915 -5.65551758 6.81591797 C-2.9541631 0.12624629 -2.9541631 0.12624629 0 0 Z M2.71484375 17.09765625 C-0.46030676 23.24962332 -3.20287872 29.50395052 -5.83203125 35.90625 C-6.24809631 36.91357681 -6.66416138 37.92090363 -7.09283447 38.95875549 C-7.96484109 41.07177111 -8.83540456 43.18538282 -9.70458984 45.29956055 C-11.04160248 48.55083183 -12.38373694 51.79995395 -13.7265625 55.04882812 C-14.57451946 57.10534478 -15.42218623 59.16198113 -16.26953125 61.21875 C-16.67258484 62.19468613 -17.07563843 63.17062225 -17.49090576 64.1761322 C-17.85838928 65.07118973 -18.2258728 65.96624725 -18.60449219 66.88842773 C-19.0926944 68.07467995 -19.0926944 68.07467995 -19.59075928 69.28489685 C-20.34477526 70.92976031 -20.34477526 70.92976031 -20.28515625 72.09765625 C-5.10515625 72.09765625 10.07484375 72.09765625 25.71484375 72.09765625 C18.69529549 53.61972774 11.35499454 35.32560793 3.71484375 17.09765625 C3.38484375 17.09765625 3.05484375 17.09765625 2.71484375 17.09765625 Z " fill="#818285" transform="translate(886.28515625,769.90234375)"/>
<path d="M0 0 C4.63535362 -1.04622401 8.38775503 -1.25882301 13 0 C16.75280102 3.88220795 18.97991944 8.42380176 21.47119141 13.18261719 C24.22284021 18.25352539 27.29594978 23.135447 30.31729126 28.04858398 C32.169732 31.06884914 34.00195236 34.10131886 35.8359375 37.1328125 C40.86630071 45.4367549 45.92940451 53.72058275 51 62 C55.70472228 55.08090425 60.13088403 48.00967057 64.5 40.875 C65.19053467 39.75077637 65.88106934 38.62655273 66.5925293 37.46826172 C70.09431654 31.76437544 73.57989447 26.05088028 77.05078125 20.328125 C78.00210937 18.76022217 78.00210937 18.76022217 78.97265625 17.16064453 C80.17398166 15.17852137 81.37329226 13.19517528 82.5703125 11.21044922 C83.38048828 9.87264404 83.38048828 9.87264404 84.20703125 8.5078125 C84.6760083 7.73066895 85.14498535 6.95352539 85.62817383 6.15283203 C88.33005693 1.9127172 88.33005693 1.9127172 90 0 C93.13671875 -0.390625 93.13671875 -0.390625 96.6875 -0.25 C98.45673828 -0.19585938 98.45673828 -0.19585938 100.26171875 -0.140625 C101.16535156 -0.09421875 102.06898437 -0.0478125 103 0 C102.3762638 3.01710352 101.39706702 5.2910981 99.8046875 7.921875 C99.11366943 9.07006714 99.11366943 9.07006714 98.40869141 10.24145508 C97.90257324 11.0692749 97.39645508 11.89709473 96.875 12.75 C96.07908447 14.0642395 96.07908447 14.0642395 95.26708984 15.4050293 C90.4963546 23.25350252 85.62299308 31.03783218 80.73901367 38.81616211 C75.54783419 47.09175238 70.45183857 55.4226591 65.39111328 63.77856445 C64.84310059 64.6830835 64.29508789 65.58760254 63.73046875 66.51953125 C63.24989014 67.31464111 62.76931152 68.10975098 62.27416992 68.92895508 C61.21984295 70.6426657 60.11609339 72.32585992 59 74 C58.6739632 76.11808281 58.6739632 76.11808281 58.68115234 78.47143555 C58.66128265 79.37214279 58.64141296 80.27285004 58.62094116 81.20085144 C58.60938995 82.16968765 58.59783875 83.13852386 58.5859375 84.13671875 C58.56657135 85.13129593 58.5472052 86.12587311 58.5272522 87.15058899 C58.46743841 90.3294719 58.42106361 93.50839098 58.375 96.6875 C58.3368219 98.84181273 58.29777027 100.99611017 58.2578125 103.15039062 C58.16173528 108.43346966 58.0777107 113.71662017 58 119 C53.71 119 49.42 119 45 119 C45.04882324 117.10447388 45.04882324 117.10447388 45.09863281 115.1706543 C45.20526536 110.38593486 45.22968233 105.60343733 45.23193359 100.81762695 C45.24378291 98.76465297 45.2765928 96.71167011 45.33251953 94.65942383 C45.73679184 79.07205661 42.85230887 69.49171068 33.48840332 57.01901245 C31.43438961 54.23275204 29.67223483 51.33913369 27.890625 48.37109375 C27.28863281 47.39148682 26.68664063 46.41187988 26.06640625 45.40258789 C25.16728516 43.93486938 25.16728516 43.93486938 24.25 42.4375 C18.43843221 32.9532068 18.43843221 32.9532068 12.57122803 23.50334167 C11.07151607 21.10339239 9.57658665 18.70048083 8.08190918 16.2973938 C7.01786043 14.59114007 5.94697382 12.88915668 4.87597656 11.18725586 C4.2362793 10.15737549 3.59658203 9.12749512 2.9375 8.06640625 C2.36902344 7.15834229 1.80054688 6.25027832 1.21484375 5.31469727 C0 3 0 3 0 0 Z " fill="#818285" transform="translate(1052,770)"/>
<path d="M0 0 C3.96 0 7.92 0 12 0 C12 35.64 12 71.28 12 108 C34.44 108 56.88 108 80 108 C80 111.63 80 115.26 80 119 C53.6 119 27.2 119 0 119 C0 79.73 0 40.46 0 0 Z " fill="#808184" transform="translate(491,770)"/>
<path d="M0 0 C3.96 0 7.92 0 12 0 C12 39.27 12 78.54 12 119 C7.71 119 3.42 119 -1 119 C-1.02311941 103.63198503 -1.04097944 88.26397206 -1.05181217 72.89594364 C-1.05697501 65.76078259 -1.06401748 58.62563252 -1.07543945 51.49047852 C-1.08644675 44.61110263 -1.09227617 37.73173819 -1.09487724 30.85235405 C-1.09673206 28.22118385 -1.10035373 25.59001431 -1.10573006 22.95884895 C-1.11293635 19.2877375 -1.11399112 15.61667397 -1.11352539 11.94555664 C-1.11712067 10.84576477 -1.12071594 9.7459729 -1.12442017 8.612854 C-1.12235817 7.12148674 -1.12235817 7.12148674 -1.12025452 5.59999084 C-1.12117631 4.73074006 -1.1220981 3.86148928 -1.12304783 2.96589756 C-1 1 -1 1 0 0 Z " fill="#808184" transform="translate(588,770)"/>
<path d="M0 0 C2.44987617 2.42831035 4.87405825 4.86408047 7.21875 7.39453125 C15.12855747 15.7783854 25.31026289 24.33342413 37.328125 25.16015625 C38.27945313 25.11181641 38.27945313 25.11181641 39.25 25.0625 C43 25 43 25 46 26 C46 26.66 46 27.32 46 28 C38.40237976 28.38999191 32.15533979 27.60758587 25 25 C25 24.34 25 23.68 25 23 C24.13375 22.7525 23.2675 22.505 22.375 22.25 C16.27442068 19.99052618 11.84159851 16.15317864 7.25 11.625 C6.30640625 10.70976563 5.3628125 9.79453125 4.390625 8.8515625 C1.93170054 5.91853169 0.9332199 3.67862261 0 0 Z " fill="#205774" transform="translate(306,860)"/>
<path d="M0 0 C0.66 0 1.32 0 2 0 C0.66253775 4.5651135 -1.18696183 8.18896177 -3.75 12.1875 C-6.38199851 16.34253239 -8.87975725 20.52925066 -11.1875 24.875 C-13.51080363 29.19875034 -15.93072802 33.16341002 -19 37 C-19.66 37 -20.32 37 -21 37 C-20.67 35.68 -20.34 34.36 -20 33 C-19.34 33 -18.68 33 -18 33 C-17.73832031 32.11957031 -17.47664063 31.23914063 -17.20703125 30.33203125 C-16.02032124 27.05609715 -14.61676834 24.57498587 -12.6875 21.6875 C-9.55556709 16.89863163 -6.73299384 12.02305419 -4 7 C-2.67684032 4.66068828 -1.33876234 2.33043816 0 0 Z " fill="#50B8C2" transform="translate(373,608)"/>
<path d="M0 0 C0.66 0 1.32 0 2 0 C0.42572836 5.98223223 -2.74616761 10.81496534 -6 16 C-6.60521484 16.97259766 -6.60521484 16.97259766 -7.22265625 17.96484375 C-8.00154917 19.21371274 -8.78286552 20.46107304 -9.56640625 21.70703125 C-12.74158458 26.78558623 -15.86486289 31.89665026 -19 37 C-19.33 36.34 -19.66 35.68 -20 35 C-18.72527306 32.23759173 -17.39260198 29.60311094 -15.9375 26.9375 C-15.52209961 26.16470703 -15.10669922 25.39191406 -14.67871094 24.59570312 C-12.12389598 19.89769329 -9.42185987 15.38636982 -6.3515625 11.00390625 C-3.97804298 7.48478627 -1.99873731 3.74099949 0 0 Z " fill="#DC8352" transform="translate(394,757)"/>
<path d="M0 0 C0.66 0.99 1.32 1.98 2 3 C1.37255859 5.06201172 1.37255859 5.06201172 0.1484375 7.4296875 C-0.28919922 8.30206055 -0.72683594 9.17443359 -1.17773438 10.07324219 C-1.65533203 10.99782227 -2.13292969 11.92240234 -2.625 12.875 C-6.23929866 20.10607626 -9.26937555 26.95056466 -11.28125 34.796875 C-11.5184375 35.52390625 -11.755625 36.2509375 -12 37 C-12.99 37.495 -12.99 37.495 -14 38 C-13.57222803 30.58528593 -11.01977331 24.72852402 -8 18 C-7.29612402 16.40918624 -6.59305137 14.81801687 -5.890625 13.2265625 C-3.93882637 8.81240829 -1.97244515 4.40496435 0 0 Z " fill="#B34C4B" transform="translate(373,792)"/>
<path d="M0 0 C0.66 0 1.32 0 2 0 C2.64939736 2.37407592 3.29460053 4.7491639 3.9375 7.125 C4.11990234 7.79015625 4.30230469 8.4553125 4.49023438 9.140625 C5.55082506 13.07445227 6.40362132 16.96973565 7 21 C7.66 21 8.32 21 9 21 C11.25861997 25.93387858 13.40109514 30.80355921 15 36 C12 35 12 35 10.3515625 31.89453125 C9.76340964 30.53926649 9.1887001 29.17811655 8.625 27.8125 C8.32263428 27.09795654 8.02026855 26.38341309 7.70874023 25.6472168 C-0.38469245 6.28331005 -0.38469245 6.28331005 0 0 Z " fill="#205572" transform="translate(291,824)"/>
<path d="M0 0 C0.66 0 1.32 0 2 0 C0.28879626 8.55601868 -1.87854189 17.25386668 -6 25 C-7.22095366 21.50347185 -6.76884532 19.47527427 -5.56640625 16.015625 C-5.24736328 15.08105469 -4.92832031 14.14648438 -4.59960938 13.18359375 C-4.08624023 11.73146484 -4.08624023 11.73146484 -3.5625 10.25 C-3.22412109 9.26644531 -2.88574219 8.28289063 -2.53710938 7.26953125 C-1.7007587 4.84293634 -0.85478572 2.42014972 0 0 Z " fill="#32819A" transform="translate(303,732)"/>
<path d="M0 0 C1.35947759 4.07843277 0.08909289 5.61222146 -1.67578125 9.37109375 C-3.99740122 13.98009152 -6.47616542 18.49916166 -9 23 C-10.14967098 19.55098707 -9.92170742 19.2025365 -8.41796875 16.09375 C-7.88526367 14.97806641 -7.88526367 14.97806641 -7.34179688 13.83984375 C-6.96087891 13.06769531 -6.57996094 12.29554688 -6.1875 11.5 C-5.63352539 10.34177734 -5.63352539 10.34177734 -5.06835938 9.16015625 C-3.51740168 5.94686149 -1.98438153 2.9765723 0 0 Z " fill="#EB992E" transform="translate(426,703)"/>
<path d="M0 0 C1.21236328 0.10828125 1.21236328 0.10828125 2.44921875 0.21875 C3.51785156 0.3115625 4.58648437 0.404375 5.6875 0.5 C7.27111328 0.63921875 7.27111328 0.63921875 8.88671875 0.78125 C11.60636025 0.9723415 14.27539856 1.04043935 17 1 C17 2.32 17 3.64 17 5 C10.67721029 4.67373505 5.44535609 4.38495108 0 1 C0 0.67 0 0.34 0 0 Z " fill="#A6423B" transform="translate(386,912)"/>
<path d="M0 0 C0.66 0 1.32 0 2 0 C0.45614871 4.14032846 -1.51028938 7.93553053 -3.625 11.8125 C-4.11226563 12.7087207 -4.11226563 12.7087207 -4.609375 13.62304688 C-5.40379151 15.08337135 -6.20155376 16.54187491 -7 18 C-7.33 18 -7.66 18 -8 18 C-7.53199289 13.94393835 -7.12046792 10.53411321 -5 7 C-4.34 7 -3.68 7 -3 7 C-2.690625 6.21625 -2.38125 5.4325 -2.0625 4.625 C-1 2 -1 2 0 0 Z " fill="#43ACBF" transform="translate(338,667)"/>
<path d="M0 0 C0.66 0.33 1.32 0.66 2 1 C-1.11291367 6.83152493 -4.19627262 12.58700334 -8 18 C-8.33 17.34 -8.66 16.68 -9 16 C-7.78144276 13.40688664 -6.51297264 10.93724337 -5.125 8.4375 C-4.74730469 7.73947266 -4.36960937 7.04144531 -3.98046875 6.32226562 C-1.17430704 1.17430704 -1.17430704 1.17430704 0 0 Z " fill="#C86857" transform="translate(383,776)"/>
<path d="M0 0 C0.66 0 1.32 0 2 0 C0.50829734 4.9723422 -1.60457417 9.41845739 -4 14 C-4.66 13.67 -5.32 13.34 -6 13 C-4.58707905 8.1725201 -2.57025846 4.2837641 0 0 Z " fill="#429BB4" transform="translate(323,693)"/>
<path d="M0 0 C1.30609191 3.91827573 0.34814961 5.25261472 -1.25 9 C-1.68828125 10.051875 -2.1265625 11.10375 -2.578125 12.1875 C-3.84557331 14.69454062 -4.88259785 16.20643583 -7 18 C-6.37462925 14.0985393 -5.17614855 10.88406072 -3.5 7.3125 C-2.83484375 5.88357422 -2.83484375 5.88357422 -2.15625 4.42578125 C-1.45015855 2.94442048 -0.73389302 1.46778605 0 0 Z " fill="#54B6BB" transform="translate(385,583)"/>
<path d="M0 0 C0.66 0 1.32 0 2 0 C0.32497468 5.86258862 -1.83212798 10.55475199 -7 14 C-5.58163643 8.8423143 -3.32608425 4.20024742 0 0 Z " fill="#E3904D" transform="translate(403,743)"/>
<path d="M0 0 C0.66 0 1.32 0 2 0 C0.42986223 5.96652354 -2.75029782 10.82909025 -6 16 C-7 13 -7 13 -5.56640625 9.86328125 C-4.90864027 8.6739872 -4.24022185 7.49053629 -3.5625 6.3125 C-3.22412109 5.70599609 -2.88574219 5.09949219 -2.53710938 4.47460938 C-1.70042085 2.9779975 -0.85137169 1.48830811 0 0 Z " fill="#59B5BA" transform="translate(373,608)"/>
<path d="M0 0 C0.99 0 1.98 0 3 0 C3.66 1.98 4.32 3.96 5 6 C3.35 7.32 1.7 8.64 0 10 C0 6.7 0 3.4 0 0 Z " fill="#5FC9C6" transform="translate(399,520)"/>
<path d="M0 0 C0.66 0 1.32 0 2 0 C1.71572583 1.58467728 1.42225182 3.1677057 1.125 4.75 C0.88136719 6.07257812 0.88136719 6.07257812 0.6328125 7.421875 C0.03203736 9.86947744 -0.77997117 11.80599857 -2 14 C-3.25127906 10.45332822 -2.72285053 8.27746562 -1.5625 4.75 C-1.27503906 3.85796875 -0.98757813 2.9659375 -0.69140625 2.046875 C-0.46324219 1.37140625 -0.23507812 0.6959375 0 0 Z " fill="#9F3744" transform="translate(362,816)"/>
<path d="M0 0 C0.66 0 1.32 0 2 0 C0.68448876 4.60428934 -1.09196486 8.18320388 -4 12 C-4.66 12 -5.32 12 -6 12 C-4.68448876 7.39571066 -2.90803514 3.81679612 0 0 Z " fill="#ED9140" transform="translate(414,726)"/>
<path d="M0 0 C0.33 0.99 0.66 1.98 1 3 C-2.26760563 8.63380282 -2.26760563 8.63380282 -5 10 C-4.38545304 6.00544473 -2.29353263 3.25533664 0 0 Z " fill="#43B9C5" transform="translate(351,646)"/>
<path d="M0 0 C3.2542015 2.83430453 4.5206753 4.68607774 5 9 C4.34 9 3.68 9 3 9 C2.01 6.03 1.02 3.06 0 0 Z " fill="#9C313C" transform="translate(360,882)"/>
<path d="M0 0 C0.66 0.33 1.32 0.66 2 1 C0.6875 3.9375 0.6875 3.9375 -1 7 C-1.99 7.33 -2.98 7.66 -4 8 C-2.25 2.25 -2.25 2.25 0 0 Z " fill="#D46F5A" transform="translate(383,776)"/>
<path d="M0 0 C0.66 0.33 1.32 0.66 2 1 C-0.07608099 4.94455388 -0.82200357 5.91100178 -5 8 C-3.35 5.36 -1.7 2.72 0 0 Z " fill="#D88362" transform="translate(388,768)"/>
<path d="M0 0 C0.66 0 1.32 0 2 0 C1.1875 2.9375 1.1875 2.9375 0 6 C-0.99 6.33 -1.98 6.66 -3 7 C-1.125 1.125 -1.125 1.125 0 0 Z " fill="#49B9C6" transform="translate(343,658)"/>
</svg>
